<?xml version="1.0" standalone="no"?><!DOCTYPE svg PUBLIC "-//W3C//DTD SVG 1.1//EN" "http://www.w3.org/Graphics/SVG/1.1/DTD/svg11.dtd"><svg t="1580625665091" class="icon" viewBox="0 0 1024 1024" version="1.1" xmlns="http://www.w3.org/2000/svg" p-id="3599" xmlns:xlink="http://www.w3.org/1999/xlink" width="200" height="200"><defs><style type="text/css"></style></defs><path d="M1024 518.320172C1024 229.221849 794.778151 0 505.679828 0 229.221849 0 0 229.221849 0 518.320172 0 794.778151 229.221849 1024 505.679828 1024 794.778151 1024 1024 794.778151 1024 518.320172z" fill="#FF3180" p-id="3600"></path><path d="M484.506151 275.268817a10.53729 10.53729 0 0 0-10.636388 10.983226l12.238452 331.330065c0.110108 3.016946 2.675613 5.466839 5.698065 5.466838h40.38744c3.033462 0 5.587957-2.504946 5.698065-5.466838l12.238452-331.330065A10.531785 10.531785 0 0 0 539.493849 275.268817h-54.987698zM512 748.731183a38.537634 38.537634 0 1 0 0-77.075269 38.537634 38.537634 0 0 0 0 77.075269z" fill="#FFFFFF" p-id="3601"></path></svg>