<?xml version="1.0" standalone="no"?><!DOCTYPE svg PUBLIC "-//W3C//DTD SVG 1.1//EN" "http://www.w3.org/Graphics/SVG/1.1/DTD/svg11.dtd"><svg t="1580700955604" class="icon" viewBox="0 0 1024 1024" version="1.1" xmlns="http://www.w3.org/2000/svg" p-id="7463" xmlns:xlink="http://www.w3.org/1999/xlink" width="200" height="200"><defs><style type="text/css"></style></defs><path d="M73.142857 0h877.714286a73.142857 73.142857 0 0 1 73.142857 73.142857v877.714286a73.142857 73.142857 0 0 1-73.142857 73.142857H73.142857a73.142857 73.142857 0 0 1-73.142857-73.142857V73.142857a73.142857 73.142857 0 0 1 73.142857-73.142857z m188.050286 248.539429a34.816 34.816 0 0 0 0 69.632h296.96a34.816 34.816 0 1 0 0-69.632h-296.96z m0 218.697142a34.816 34.816 0 0 0 0 69.632h474.185143a34.816 34.816 0 0 0 0-69.632H261.193143z m0 228.717715a34.816 34.816 0 0 0 0 69.558857h406.966857a34.816 34.816 0 0 0 0-69.558857H261.193143z" fill="#1296db" p-id="7464"></path></svg>