<?xml version="1.0" standalone="no"?><!DOCTYPE svg PUBLIC "-//W3C//DTD SVG 1.1//EN" "http://www.w3.org/Graphics/SVG/1.1/DTD/svg11.dtd"><svg t="1580788744157" class="icon" viewBox="0 0 1024 1024" version="1.1" xmlns="http://www.w3.org/2000/svg" p-id="5030" xmlns:xlink="http://www.w3.org/1999/xlink" width="200" height="200"><defs><style type="text/css"></style></defs><path d="M894.5 118.25H770.75v-22.5C770.75 78.875 753.875 62 737 62s-33.75 16.875-33.75 33.75v22.5H326.375v-22.5c0-16.875-16.875-33.75-33.75-33.75s-33.75 16.875-33.75 33.75v22.5H129.5c-33.75 0-67.5 28.125-67.5 67.5v703.125C62 928.25 95.75 962 129.5 962h759.375c39.375 0 67.5-33.75 67.5-67.5V185.75c5.625-39.375-28.125-67.5-61.875-67.5z m0 776.25h-765V332h759.375v562.5z m0-635.625h-765V185.75h123.75v5.625c0 16.875 16.875 33.75 33.75 33.75s33.75-16.875 33.75-33.75v-5.625H692v5.625c0 16.875 16.875 33.75 33.75 33.75s33.75-16.875 33.75-33.75v-5.625h123.75v73.125z" p-id="5031"></path><path d="M292.625 568.25h67.5c22.5 0 39.375-16.875 39.375-33.75s-16.875-39.375-33.75-39.375h-73.125c-16.875 0-33.75 16.875-33.75 39.375s16.875 33.75 33.75 33.75z m185.625 0h67.5c22.5 0 33.75-16.875 33.75-33.75s-11.25-39.375-33.75-39.375h-67.5c-22.5 0-33.75 16.875-33.75 39.375s11.25 33.75 33.75 33.75z m180 0h67.5c16.875 0 33.75-16.875 33.75-33.75s-16.875-33.75-33.75-33.75h-67.5c-16.875-5.625-33.75 11.25-33.75 33.75s16.875 33.75 33.75 33.75zM292.625 753.875h67.5c22.5 0 39.375-16.875 39.375-39.375s-16.875-33.75-33.75-33.75h-73.125c-16.875 0-33.75 16.875-33.75 33.75s16.875 39.375 33.75 39.375z m185.625 0h67.5c16.875 0 33.75-16.875 33.75-33.75s-11.25-39.375-33.75-39.375h-67.5c-16.875 0-33.75 16.875-33.75 33.75s11.25 39.375 33.75 39.375z" p-id="5032"></path></svg>