<?xml version="1.0" standalone="no"?><!DOCTYPE svg PUBLIC "-//W3C//DTD SVG 1.1//EN" "http://www.w3.org/Graphics/SVG/1.1/DTD/svg11.dtd"><svg t="1583070320715" class="icon" viewBox="0 0 1024 1024" version="1.1" xmlns="http://www.w3.org/2000/svg" p-id="2255" xmlns:xlink="http://www.w3.org/1999/xlink" width="200" height="200"><defs><style type="text/css"></style></defs><path d="M76.86 502.182a56.862 56.862 0 0 0 0 80.414L441.404 947.14a56.862 56.862 0 0 0 80.414 0l80.535-80.535-444.958-444.958-80.535 80.535z m856.727 30.238c7.83-5.421 13.974-14.939 16.143-29.516l13.191-377.976c6.205-41.321-22.467-70.054-63.789-63.85L521.577 74.21c-13.432 2.048-22.588 7.228-28.43 13.854a55.236 55.236 0 0 0-8.253 6.746L180.706 399.36l443.512 443.934 304.189-304.49c1.927-1.987 3.553-4.216 5.18-6.384zM726.98 372.555a90.232 90.232 0 0 1-25.6-7.228c-1.988-0.964-3.976-2.048-5.903-3.132-2.41-1.325-4.82-2.53-7.048-4.096a84.811 84.811 0 0 1-12.469-10.24 84.51 84.51 0 0 1-10.12-12.409c-1.625-2.289-2.89-4.818-4.216-7.168-1.024-1.927-2.108-3.794-3.011-5.842a91.799 91.799 0 0 1-7.229-25.48 87.16 87.16 0 0 1 148.18-72.885 87.582 87.582 0 0 1 0 123.844c-19.758 19.878-46.804 27.829-72.644 24.636z" p-id="2256"></path></svg>