<?xml version="1.0" standalone="no"?><!DOCTYPE svg PUBLIC "-//W3C//DTD SVG 1.1//EN" "http://www.w3.org/Graphics/SVG/1.1/DTD/svg11.dtd"><svg t="1580625657005" class="icon" viewBox="0 0 1024 1024" version="1.1" xmlns="http://www.w3.org/2000/svg" p-id="2860" xmlns:xlink="http://www.w3.org/1999/xlink" width="200" height="200"><defs><style type="text/css"></style></defs><path d="M512 0a512 512 0 1 0 0 1024A512 512 0 0 0 512 0z m269.397 781.483a41.813 41.813 0 0 1-58.88-0.086L512 570.624 301.397 781.483a41.643 41.643 0 0 1-58.794-58.88L452.864 512 242.517 301.397a41.643 41.643 0 0 1 58.88-58.794L512 453.46l210.517-210.773a41.643 41.643 0 0 1 58.966 58.795L571.05 512l210.346 210.603a41.557 41.557 0 0 1 0 58.88z" fill="#F04134" p-id="2861"></path></svg>