<?xml version="1.0" standalone="no"?><!DOCTYPE svg PUBLIC "-//W3C//DTD SVG 1.1//EN" "http://www.w3.org/Graphics/SVG/1.1/DTD/svg11.dtd"><svg t="1580788693799" class="icon" viewBox="0 0 1024 1024" version="1.1" xmlns="http://www.w3.org/2000/svg" p-id="2725" xmlns:xlink="http://www.w3.org/1999/xlink" width="200" height="200"><defs><style type="text/css"></style></defs><path d="M767.54821 127.981836H257.905908c-36.452213 0-66.00325 29.551036-66.00325 66.00325v637.563764c0 36.452213 29.551036 66.00325 66.00325 66.00325h509.642302c36.452213 0 66.00325-29.551036 66.00325-66.00325V193.985086c0-36.453237-29.550013-66.00325-66.00325-66.00325z m0 670.309562c0 18.367323-14.890128 33.257451-33.257451 33.257452H289.12084c-18.367323 0-33.257451-14.890128-33.257451-33.257452V225.200018c0-18.367323 14.890128-33.257451 33.257451-33.257451h445.169919c18.367323 0 33.257451 14.890128 33.257451 33.257451v573.09138z" p-id="2726"></path><path d="M575.667042 351.84337c0 17.662265-14.3181 31.980365-31.980366 31.980366H351.804485c-17.662265 0-31.980365-14.3181-31.980366-31.980366 0-17.662265 14.3181-31.980365 31.980366-31.980365H543.686676c17.662265 0 31.980365 14.3181 31.980366 31.980365zM703.58748 479.764831c0 17.662265-14.3181 31.980365-31.980366 31.980366h-319.803653c-17.662265 0-31.980365-14.3181-31.980365-31.980366 0-17.662265 14.3181-31.980365 31.980365-31.980365h319.803653c17.662265 0 31.980365 14.3181 31.980366 31.980365zM703.58748 607.686293c0 17.662265-14.3181 31.980365-31.980366 31.980365h-319.803653c-17.662265 0-31.980365-14.3181-31.980365-31.980365 0-17.662265 14.3181-31.980365 31.980365-31.980366h319.803653c17.662265 0 31.980365 14.3181 31.980366 31.980366z" p-id="2727"></path></svg>