<?xml version="1.0" standalone="no"?><!DOCTYPE svg PUBLIC "-//W3C//DTD SVG 1.1//EN" "http://www.w3.org/Graphics/SVG/1.1/DTD/svg11.dtd"><svg t="1580700868593" class="icon" viewBox="0 0 1024 1024" version="1.1" xmlns="http://www.w3.org/2000/svg" p-id="4646" xmlns:xlink="http://www.w3.org/1999/xlink" width="200" height="200"><defs><style type="text/css"></style></defs><path d="M916.01 453.32L584.81 108.89a107.46 107.46 0 0 0-155.16 0L98.54 453.32c-34.2 36-29.79 66.33-24.21 79.11a57.6 57.6 0 0 0 56.79 34.2h48.6v264.96c0 60.12 43.2 117 104.67 117h140.94V667.97c0-30.06-4.5-46.8 26.19-46.8h111.42c30.78 0 26.19 16.74 26.19 46.8v280.44h141.03c61.38 0 104.67-56.7 104.67-117V566.63h48.51a57.6 57.6 0 0 0 56.79-34.2c5.67-12.78 10.08-43.56-24.12-79.11z" fill="#1296db" p-id="4647"></path></svg>