<?xml version="1.0" standalone="no"?><!DOCTYPE svg PUBLIC "-//W3C//DTD SVG 1.1//EN" "http://www.w3.org/Graphics/SVG/1.1/DTD/svg11.dtd"><svg t="1580700996844" class="icon" viewBox="0 0 1575 1024" version="1.1" xmlns="http://www.w3.org/2000/svg" p-id="10849" xmlns:xlink="http://www.w3.org/1999/xlink" width="307.6171875" height="200"><defs><style type="text/css"></style></defs><path d="M193.278781 0m32.21313 0l1030.820164 0q32.21313 0 32.21313 32.21313l0 64.42626q0 32.21313-32.21313 32.21313l-1030.820164 0q-32.21313 0-32.21313-32.21313l0-64.42626q0-32.21313 32.21313-32.21313Z" fill="#1296db" p-id="10850"></path><path d="M0 0m32.21313 0l64.42626 0q32.21313 0 32.21313 32.21313l0 64.42626q0 32.21313-32.21313 32.21313l-64.42626 0q-32.21313 0-32.21313-32.21313l0-64.42626q0-32.21313 32.21313-32.21313Z" fill="#1296db" p-id="10851"></path><path d="M193.278781 354.344431m32.21313 0l740.901993 0q32.21313 0 32.21313 32.21313l0 64.426261q0 32.21313-32.21313 32.21313l-740.901993 0q-32.21313 0-32.21313-32.21313l0-64.426261q0-32.21313 32.21313-32.21313Z" fill="#1296db" p-id="10852"></path><path d="M0 354.344431m32.21313 0l64.42626 0q32.21313 0 32.21313 32.21313l0 64.426261q0 32.21313-32.21313 32.21313l-64.42626 0q-32.21313 0-32.21313-32.21313l0-64.426261q0-32.21313 32.21313-32.21313Z" fill="#1296db" p-id="10853"></path><path d="M193.278781 708.688863m32.21313 0l1030.820164 0q32.21313 0 32.21313 32.21313l0 64.42626q0 32.21313-32.21313 32.21313l-1030.820164 0q-32.21313 0-32.21313-32.21313l0-64.42626q0-32.21313 32.21313-32.21313Z" fill="#1296db" p-id="10854"></path><path d="M0 708.688863m32.21313 0l64.42626 0q32.21313 0 32.21313 32.21313l0 64.42626q0 32.21313-32.21313 32.21313l-64.42626 0q-32.21313 0-32.21313-32.21313l0-64.42626q0-32.21313 32.21313-32.21313Z" fill="#1296db" p-id="10855"></path></svg>