<?xml version="1.0" standalone="no"?><!DOCTYPE svg PUBLIC "-//W3C//DTD SVG 1.1//EN" "http://www.w3.org/Graphics/SVG/1.1/DTD/svg11.dtd"><svg t="1580818380447" class="icon" viewBox="0 0 1024 1024" version="1.1" xmlns="http://www.w3.org/2000/svg" p-id="3644" xmlns:xlink="http://www.w3.org/1999/xlink" width="200" height="200"><defs><style type="text/css"></style></defs><path d="M247.720229 284.279954c-20.259109-34.18112-47.285394-58.082743-80.995475-71.573211a4.388571 4.388571 0 1 0-3.262171 8.149577c31.868343 12.751726 57.409829 35.341166 76.706377 67.898514a4.388571 4.388571 0 1 0 7.551269-4.476343zM221.776457 308.320549c-38.345874-37.833874-83.293623-54.143269-134.500937-48.761418a4.388571 4.388571 0 1 0 0.917211 8.728869c48.55808-5.102446 90.918034 10.269257 127.419246 46.280411a4.388571 4.388571 0 1 0 6.16448-6.2464zM205.980526 322.849646c-78.570057-19.788069-139.103086-18.24768-181.584457 4.944457a4.388571 4.388571 0 0 0 4.207177 7.703406c40.203703-21.948709 98.606811-23.434971 175.232731-4.13696a4.388571 4.388571 0 0 0 2.144549-8.510903z" fill="#340D06" p-id="3645"></path><path d="M791.84896 516.344686c13.190583 2.940343 30.327954-32.598309 54.764983-62.376229 23.677806-28.850469 64.994743-23.361829 84.7872-8.76544 21.953097 16.192366 43.81696 69.8368 0 127.217372-15.832503 20.731611-30.910171 32.43008-103.756069 74.752 44.70784-42.112731 71.207497-69.667109 79.497509-82.663132 30.911634-48.457143 12.873143-86.795703 4.466103-93.65504-20.373211-16.622446-41.115063-5.266286-51.6608 9.570012-32.415451 45.607497-34.001189 68.483657-68.098926 68.483657-45.175954 0-74.515017-121.500526-121.120183-90.953143-27.74016 18.180389-26.561097 67.664457 5.737326 106.554514 40.475794 48.733623 83.467703 71.71072 109.325166 102.493623 25.857463 30.782903 19.590583 107.322514-42.785646 163.796114a473.749211 473.749211 0 0 1-34.454674 28.380892c-6.086949 37.392091-29.584823 71.011474-73.268663 87.05024l-3.455269 1.941211-1.825646 1.038629c-19.211703 10.999223-23.268206 15.83104-18.8416 35.608868l0.149212 0.656823c5.005897 21.83168 1.629623 29.179611-49.934629 29.32736h-4.692845c-51.843657-0.087771-149.43232-2.182583-181.547886-2.353737l-3.733212-0.01024c-17.437257 0-29.696-7.709257-27.004342-15.235657h-0.370103c-16.904777 0.67584-21.736594-4.192549-14.495452-14.605166l-0.256-0.042423-65.846125 14.710492c-17.871726 4.903497-28.369189 4.903497-31.492389 0-1.354606-2.128457-1.490651-4.426606-0.570514-6.619429l-0.588069 0.080457c-8.06912-4.632869-10.757851-9.60512-8.06912-14.915291 0.79872-1.575497 2.020206-3.199269 3.572297-4.7616l-1.082514 0.238446c-8.382171-5.517897-9.549531-11.81696-3.497691-18.898652 9.077029-10.620343 33.557943-19.257051 63.705965-14.938697-31.350491-24.336091-47.026469-51.001051-47.026468-79.997806 0-28.996754 16.46592-56.210286 49.396297-81.642057l38.149851-32.582217-6.380983-37.890926a201.30816 201.30816 0 0 1-12.628845-36.019931c-0.504686-2.042149-102.397074-53.265554-138.103955-53.265554l-0.516388 0.007314c-8.961463 0.219429-43.160137 5.60128-53.15584-9.591954-10.19904-15.50336 27.4944-27.027749 23.891383-28.048823-18.190629-5.153646-76.9024-55.246263-61.981257-66.419566 14.924069-11.173303 33.316571 11.246446 66.51904 34.6624-18.152594-38.521417-29.088914-87.676343-4.537783-81.536731 24.551131 6.139611 20.333714 43.029943 34.169417 64.336457 13.835703 21.303589 6.222994-13.484617 20.854491-8.256366 14.63296 5.228251 10.852937 18.246217 16.83456 33.467246 5.983086 15.221029 91.06432 39.982811 91.510492 36.878628l0.248685-1.670583c4.306651-27.655314 19.226331-72.942446 36.654812-121.738971l206.053668-38.104503c-1.201006 101.849966 12.878994 198.777417 52.873509 235.654583l2.236709 2.052389c36.716251 33.593051 82.998126 70.13376 102.323931 127.207131a140.775131 140.775131 0 0 1 5.46816 21.642971l2.402011-2.182582c64.427154-58.305097 66.2016-105.732389 49.271955-133.545692-16.928183-27.814766-77.582629-64.813349-107.582903-100.135497-42.10688-49.576229-42.222446-127.174949 5.75488-150.125714 84.89984-40.610377 109.515337 80.34304 133.743177 85.740983zM313.263543 249.033874c-49.427017-55.452526-69.270674-107.114789-59.530972-154.988251 14.609554-71.808731 125.820343-121.52832 179.979703-50.900114 36.10624 47.084983 31.512869 108.612754-13.780114 184.58624l-106.668617 21.302125z" fill="#D8000F" p-id="3646"></path><path d="M433.712274 43.145509c19.093211 24.897829 26.805394 53.833143 23.136549 86.807405-2.485394-20.5824-10.196114-39.309897-23.136549-56.183954-54.157897-70.626743-165.370149-20.907154-179.979703 50.901577a119.663177 119.663177 0 0 0-1.446765 8.756663c-1.651566-13.399771-1.168823-26.527451 1.446765-39.380114 14.609554-71.810194 125.820343-121.529783 179.979703-50.901577z" fill="#C40714" p-id="3647"></path><path d="M488.83712 227.731749c0-5.02784 31.890286-135.165074 134.743771-148.396618 39.448869-5.076114 79.706697 6.111817 106.400915 72.636709 26.694217 66.524891 0.735817 158.70976-60.591543 178.351543-66.933029 21.436709-108.817554 15.180069-125.650652-18.76992-36.602149-52.5312-54.902491-80.471771-54.902491-83.821714z" fill="#D8000F" p-id="3648"></path><path d="M729.981806 151.97184c8.946834 22.298331 11.9808 47.478491 9.747017 71.84384-1.322423-14.230674-4.529006-28.215589-9.747017-41.218926-26.694217-66.524891-66.952046-77.712823-106.400915-72.636708-79.371703 10.210743-116.484389 90.04032-129.293165 128.269165-3.633737-5.943589-5.450606-9.44128-5.450606-10.497462 0-5.02784 31.890286-135.165074 134.743771-148.396618 39.448869-5.076114 79.706697 6.111817 106.400915 72.636709z" fill="#C40714" p-id="3649"></path><path d="M380.800731 206.943086c-102.206903 37.525211-206.811429 137.254034-204.345051 160.719725 1.3824 13.143771 109.351497 120.612571 224.892343 117.367955 150.921509-4.237897 205.714286-99.190491 192.55296-187.702126-13.159863-88.511634-110.891886-127.909303-213.100252-90.385554z" fill="#FFE400" p-id="3650"></path><path d="M380.800731 206.943086c102.208366-37.522286 199.940389 1.872457 213.100252 90.385554a173.35296 173.35296 0 0 1 1.737874 18.200869c-14.97088-86.314423-111.598446-124.345783-212.597028-87.266743-89.803337 32.969874-181.455726 113.962423-200.706926 149.05344-3.661531-4.548023-5.696366-7.919909-5.879223-9.653395-2.466377-23.465691 102.136686-123.194514 204.346514-160.719725z" fill="#FFA700" p-id="3651"></path><path d="M168.812259 374.728564m-22.842497 2.400844a22.96832 22.96832 0 1 0 45.684995-4.801687 22.96832 22.96832 0 1 0-45.684995 4.801687Z" fill="#D8000F" p-id="3652"></path><path d="M482.726766 659.197074a4.388571 4.388571 0 1 0-8.342675-2.728228c-10.832457 33.130789-33.657417 57.007543-68.763062 71.827748l-1.661806 0.702172-2.391772 5.778285-1.625234 3.8912c-17.393371 41.466149-30.387931 66.854034-38.579931 75.664823-21.164617 22.76352-40.655726 16.869669-45.807909-13.39392-4.33152-25.449326 7.402057-56.624274 34.014354-100.084297l1.647178-2.677028c10.093714-16.300617 29.954926-42.790034 59.523657-79.365852a4.388571 4.388571 0 1 0-6.824229-5.517897l-5.415497 6.720366-3.56352 4.447085c-24.871497 31.126674-41.919634 54.134491-51.182446 69.096595l-1.711543 2.782354-1.641325 2.694583c-26.502583 43.783314-38.20544 75.7248-33.499429 103.377188 6.36928 37.414034 34.760411 46.001006 60.888503 17.898058 9.403246-10.114194 23.178971-37.226789 41.766034-81.884892l1.143955-2.756023c36.460251-15.842743 60.55936-41.397394 72.026697-76.47232z" fill="#FFE400" p-id="3653"></path><path d="M456.680594 392.336823a32.9216 16.078263 0 1 0 65.8432 0 32.9216 16.078263 0 1 0-65.8432 0Z" fill="#D8000F" p-id="3654"></path><path d="M398.52032 321.524297c-2.189897-4.158903 53.385509-54.450469 96.725577-23.79776 14.036114 9.926949 15.45216 19.423817 13.171566 20.365897-4.763063 1.969006-17.898057-15.338057-47.637943-13.859108-29.738423 1.480411-60.070766 21.451337-62.2592 17.290971z" fill="#340D06" p-id="3655"></path><path d="M293.541303 239.332206c-41.455909-51.6096-57.836983-100.695771-48.410332-147.03616 7.725349-37.96992 40.349989-71.400594 80.894538-85.408915 43.398583-14.997211 87.044389-5.086354 114.652891 30.917486 30.409874 39.658057 33.862217 88.755931 10.937783 146.271086 14.099017-0.373029 27.813303 0.7168 40.889783 3.241691 9.957669-24.195657 23.274057-47.163977 40.121783-66.425417 24.388754-27.879131 54.254446-45.685029 89.834057-50.262308 51.817326-6.66624 90.545006 15.469714 115.666651 78.072685 29.407817 73.289143-1.287314 169.235017-66.059703 189.979795-27.058469 8.665966-50.341303 12.979931-69.936274 12.86144-5.851429 34.226469-22.13888 65.048869-48.063634 89.030948v3.208046c0.191634 105.618286 17.371429 185.267931 50.099931 215.445211l2.208914 2.02752 5.915795 5.354057c5.282377 4.75136 16.958903 15.27808 22.659657 20.501943l3.976046 3.6864 2.315702 2.178195c35.989211 34.015817 57.513691 62.69952 69.860206 99.159771a150.879086 150.879086 0 0 1 2.352274 7.601006c23.788983-23.281371 38.136686-45.474377 43.900343-65.91488 5.267749-18.671909 3.115886-35.187566-4.921051-48.392777-3.848777-6.323931-10.8032-13.897143-21.205577-23.288686l-1.509669-1.354606-1.47456-1.307794c-3.740526-3.29728-7.8848-6.81984-12.821943-10.912914l-2.589257-2.14016-21.363566-17.451886-3.95264-3.257783c-10.515017-8.704-18.203794-15.387794-25.377645-22.15936l-1.114697-1.057646c-5.895314-5.62176-10.994834-10.937783-15.365852-16.084114-46.401829-54.634789-44.32896-138.380434 8.657189-163.725897 25.478583-12.188526 48.249417-11.989577 68.365165-0.9728 15.311726 8.385097 27.886446 21.983817 40.961463 41.827474l0.702172 1.067886c4.115017 6.30784 16.149943 26.359223 18.88256 30.657097l0.917211 1.404343 0.700709 1.047406c4.144274 6.116206 7.153371 9.330103 8.626468 9.964982 0.512-0.193097 1.258057-0.631954 2.189897-1.356068 2.184046-1.696914 4.847909-4.52608 8.086675-8.594286l1.094217-1.395566 0.449097-0.589531c4.839131-6.436571 20.063086-28.30336 24.659383-34.598034l1.500891-2.026057a298.86464 298.86464 0 0 1 8.374857-10.724206c12.68736-15.459474 30.610286-23.36768 50.407132-23.882606 17.037897-0.443246 34.393234 4.785006 46.372571 13.620663 14.239451 10.501851 25.368869 31.005257 28.17024 54.172526 3.363109 27.820617-4.983954 57.387886-26.423588 85.46304l-0.971337 1.260983-1.019612 1.30048c-16.68096 21.07392-35.494766 34.444434-104.310491 74.427245l-31.821532 18.487589c8.897097 17.870263 11.086994 42.130286 5.852892 67.772708-7.039269 34.491246-26.631314 68.616777-57.188937 96.283795a483.673234 483.673234 0 0 1-32.305738 26.80832c-7.889189 41.311086-34.960823 74.20928-77.613348 90.106148l-2.808686 1.578423-1.78176 1.012297-1.661806 0.958172-1.509668 0.883565c-13.155474 7.738514-14.464731 9.981074-12.007132 21.847772l0.386195 1.808091 0.577828 2.58048c1.492114 6.808137 1.989486 11.726263 1.287315 16.345966-0.943543 6.193737-4.129646 11.186469-9.559772 14.68416-8.37632 5.397943-22.239817 7.431314-47.586743 7.643429l-2.93888 0.014628h-4.722103l-8.118857-0.026331c-16.27136-0.080457-36.39296-0.310126-62.251885-0.687543l-100.00384-1.536-8.174446-0.08192-2.062629-0.014629-4.640183-0.016091c-9.82016 0-18.88256-2.14016-25.478582-5.994789-4.1984-2.451749-7.431314-5.653943-9.204298-9.311085-6.743771-0.465189-11.742354-2.16064-15.223954-5.668572-1.872457-1.888549-3.063223-3.949714-3.652754-6.138148l-52.297143 11.682377-1.489189 0.402285c-20.671634 5.479863-33.508206 5.231177-39.520548-4.207177a15.991954 15.991954 0 0 1-2.391772-6.435108c-8.060343-6.047451-11.420526-13.804983-7.955017-22.194469-6.912-7.818971-6.897371-17.608411 0.841143-26.663497 8.885394-10.397989 26.155886-17.3056 46.353554-18.818194-21.046126-21.547886-31.779109-45.063314-31.779108-70.416092 0-31.98976 17.842469-61.533623 52.636526-88.456045l23.010742-19.653486c2.479543-6.773029 5.536914-13.881051 9.196983-21.410377l-3.364571-19.997257a210.088229 210.088229 0 0 1-11.825737-33.142492l-1.181989-0.658286-2.080183-1.1264c-1.9456-1.038629-4.2496-2.233783-6.821303-3.538651l-2.952045-1.486263-3.023726-1.500891a844.122697 844.122697 0 0 0-33.868069-15.743269l-3.894125-1.695451c-34.60096-14.944549-62.834103-24.214674-76.505966-24.216137l-0.428617 0.005851-0.403749 0.014629c-0.343771 0.014629-0.741669 0.035109-1.222948 0.067291l-7.121189 0.526629-2.486857 0.16384c-6.075246 0.370103-11.146971 0.453486-16.3328 0.165302-15.348297-0.854309-26.825874-4.90496-33.124937-14.47936-4.646034-7.062674-4.079909-14.777783 0.57344-21.38112 2.881829-4.088686 7.081691-7.570286 12.546926-10.950948-9.880137-6.332709-21.395749-15.520914-31.401692-25.178697-8.54016-8.244663-15.24736-16.14848-19.233646-23.004892-2.495634-4.293486-4.017006-8.2944-4.353462-12.166583-0.469577-5.40672 1.473097-10.358491 5.851428-13.636754 10.697874-8.009143 22.023314-5.671497 36.561189 4.103314l0.598308 0.4096c1.569646 1.102994 4.233509 3.096869 7.483977 5.569098l7.339155 5.61152c-3.610331-11.02848-6.146926-21.56544-7.203109-30.488869-1.189303-10.039589-0.59392-18.15552 2.387383-24.201509 4.13696-8.389486 12.426971-11.811109 22.203246-9.366674 9.589029 2.399086 16.511269 8.364617 21.41184 17.327543 3.159771 5.782674 5.0176 11.249371 7.861394 21.989669l1.132251 4.338834 0.947932 3.592777 0.447634 1.644251c1.774446 6.421943 3.335314 11.021166 5.139017 14.774858a17.558674 17.558674 0 0 1 3.105646-4.207178c4.125257-4.128183 9.856731-5.254583 15.801783-3.130514 6.436571 2.299611 11.050423 6.056229 14.078537 11.30496 2.121143 3.67616 3.145143 7.071451 4.395886 13.218377l0.605623 3.007635 0.45056 2.176731c0.772389 3.642514 1.281463 5.513509 2.113828 7.753143l0.320366 0.841143 0.137508 0.169691c0.055589 0.065829 0.119954 0.138971 0.196023 0.219429l0.187246 0.193097c0.526629 0.529554 1.272686 1.158583 2.219154 1.85344 2.074331 1.521371 4.918126 3.221211 8.424595 5.033691l1.437988 0.731429c7.579063 3.790263 17.595246 7.870171 28.829989 11.830126l1.20832 0.424228c9.805531 3.423086 20.020663 6.571154 28.290194 8.768366l1.067886 0.280868c0.904046 0.23552 1.770057 0.456411 2.595108 0.659749l1.588663 0.386194 0.449097-2.276205c4.366629-21.536183 13.449509-51.38432 27.523657-91.896686l2.021669-5.792914c-28.379429-9.303771-56.416549-23.573943-82.926446-41.357898-19.963611-13.39392-38.291749-28.338469-52.28544-42.042514a31.676709 31.676709 0 0 1-17.80736 7.873097c-17.437257 1.83296-33.057646-10.816366-34.889143-28.253623-1.834423-17.437257 10.814903-33.057646 28.25216-34.889142 3.978971-0.418377 7.928686-0.084846 11.680915 0.940617 19.410651-28.275566 66.059703-69.958217 116.11136-102.22592l1.518445-0.974263-1.263908-1.565257z m-104.28416 145.867337l0.681691 13.228617-0.681691-13.228617z m93.154743 383.663543l-0.336457 0.273554 0.16384-0.138971 0.172617-0.13312z m35.428937 225.240503c-1.360457-5.045394-1.06496-2.494171 2.943268-8.257829l8.301715-3.16416 0.190171-0.125806-5.702217 9.271589-5.7344 2.276206z m479.428023-324.632869l-1.676435-4.084297a61.981257 61.981257 0 0 1 4.113555 6.828617l0.526628 1.035703-2.963748-3.780023z m30.907245-34.874514l3.500618-3.325075c37.276526-35.474286 59.997623-59.323246 67.605942-70.775954l0.4608-0.70656c12.8-20.064549 17.437257-39.384503 15.645258-56.808594-0.687543-6.694034-2.325943-12.780983-4.590446-17.813212-0.936229-2.083109-1.942674-3.894126-2.933029-5.333577-0.762149-1.110309-1.432137-1.872457-1.805165-2.179657-13.487543-11.003611-28.672-6.616503-38.957349 7.855543l-1.380937 1.954377c-5.446217 7.75168-9.991314 14.782171-15.9744 24.497006l-5.617372 9.147246-2.555611 4.125257c-3.183177 5.096594-4.701623 7.325989-6.969051 10.3936l-0.79872 1.070811c-11.125029 14.723657-22.908343 20.987611-41.957669 20.987612-11.895954 0-22.775223-5.983086-33.767131-16.989623l-0.611475-0.615863c-7.36256-7.492754-13.238857-15.111314-24.202971-30.74048l-6.933943-9.918172-1.442377-2.03776c-23.328183-32.797257-35.322149-41.281829-49.350949-32.087771-23.069257 15.120091-21.128046 58.922423 7.677075 93.605303a327.621486 327.621486 0 0 0 15.225417 17.068617c10.87488 11.378103 22.05696 21.6064 36.328594 33.581349l2.026057 1.693988 3.652754 3.032503 16.047543 13.180343 3.2768 2.716526a508.708571 508.708571 0 0 1 10.200503 8.689371l2.12992 1.88416c8.174446 7.287954 14.752914 13.879589 20.406857 20.611657a55.530057 55.530057 0 0 1 2.489783 3.193417l0.590994 0.833829 32.58368-30.790217z m-119.916251 181.998445l5.197531-16.857965-5.197531 16.857965zM433.712274 43.145509C379.554377-27.481234 268.342126 22.235429 253.732571 94.045623c-9.385691 46.1312 8.698149 95.780571 54.254446 148.948114-61.07136 37.443291-112.62976 86.308571-127.351954 112.040229a22.867383 22.867383 0 0 0-14.22336-3.148069c-12.61568 1.325349-21.767314 12.627383-20.441966 25.243063 1.326811 12.61568 12.628846 21.767314 25.243063 20.441966 8.009143-0.842606 14.621257-5.70368 18.044343-12.371383 24.355109 25.956937 80.862354 71.677074 147.202926 90.939977l-2.507338 7.109486c-15.067429 42.92608-27.446126 81.854171-31.302217 106.632045l-0.250148 1.670583c-0.446171 3.104183-85.527406-21.6576-91.510492-36.878628-5.981623-15.221029-2.2016-28.238994-16.83456-33.467246-14.631497-5.228251-7.018789 29.559954-20.854491 8.254903s-9.618286-58.195383-34.169417-64.334994c-24.551131-6.139611-13.614811 43.015314 4.537783 81.536731-33.202469-23.415954-51.594971-45.835703-66.517578-34.6624-14.924069 11.173303 43.789166 61.264457 61.979795 66.419566 3.603017 1.021074-34.090423 12.545463-23.891383 28.048823 9.493943 14.42816 40.813714 10.30144 51.618377 9.660708l0.969874-0.049737 0.567589-0.019017 0.516388-0.007314c35.708343 0 137.599269 51.223406 138.103955 53.265554a201.30816 201.30816 0 0 0 12.628845 36.019931l4.028709 23.93088c-4.441234 8.917577-8.064731 17.296823-10.848549 25.234286l-24.949028 21.306514c-32.930377 25.433234-49.396297 52.648229-49.396297 81.64352 0 28.996754 15.675977 55.661714 47.026468 79.997806-30.149486-4.318354-54.628937 4.316891-63.707428 14.938697-5.874834 6.875429-4.944457 13.01504 2.786743 18.415909 0.231131 0.160914 0.607086 0.244297 0.873325 0.244297h0.9216c-1.550629 1.562331-2.773577 3.186103-3.572297 4.7616-2.394697 4.73088-0.523703 9.191131 5.614446 13.38368 0.754834 0.513463 1.824183 1.1264 2.216228 1.244891 0.261851 0.078994 0.536869 0.147749 0.826515 0.206263-0.920137 2.194286-0.784091 4.490971 0.570514 6.619429 3.1232 4.903497 13.620663 4.903497 31.492389 0l65.657417-14.710492 0.712411-0.212114-0.712411 0.91136c-6.58432 9.960594-1.604754 14.609554 14.94016 13.949806l0.371565-0.001463c-2.6624 7.44448 9.29792 15.065966 26.430903 15.232731l4.305189 0.014629c29.289326 0.155063 113.034971 1.911954 166.873966 2.284983l6.568228 0.039497 8.104229 0.027794h4.695771c50.531474-0.144823 54.784-7.204571 50.222812-28.035657l-0.570515-2.538057-0.244297-1.151269c-3.557669-17.198811 0.073143-22.545554 15.921737-31.950263l1.60768-0.945005 1.688137-0.9728 1.825646-1.038629 3.455269-1.941211c43.68384-16.038766 67.181714-49.658149 73.268663-87.05024a473.749211 473.749211 0 0 0 34.454674-28.379429c62.376229-56.475063 68.643109-133.014674 42.785646-163.796114-25.857463-30.784366-68.849371-53.76-109.325166-102.495086-32.299886-38.890057-33.477486-88.374126-5.737326-106.554514 46.606629-30.547383 75.944229 90.953143 121.120183 90.953143 34.0992 0 35.683474-22.87616 68.098926-68.483657 10.5472-14.83776 31.287589-26.192457 51.6608-9.570012 8.405577 6.859337 26.445531 45.197897-4.466103 93.65504l-0.476892 0.731429c-8.092526 12.222171-31.035977 36.316891-68.827428 72.28416l-3.623497 3.44064-6.569692 6.208365 8.303177-4.839131c64.356937-37.615909 79.614537-49.503086 94.502035-68.681143l0.950857-1.233188c43.81696-57.382034 21.953097-111.025006 0-127.217372-19.792457-14.597851-61.109394-20.085029-84.7872 8.76544-24.437029 29.77792-41.5744 65.316571-54.764983 62.376229-24.22784-5.397943-48.8448-126.349897-133.743177-85.738057-47.977326 22.949303-47.86176 100.548023-5.75488 150.124251 30.000274 35.322149 90.653257 72.320731 107.582903 100.135497 16.929646 27.813303 15.1552 75.240594-49.271955 133.544229l-2.402011 2.184045a140.775131 140.775131 0 0 0-5.46816-21.642971c-17.996069-53.1456-59.367131-88.488229-94.621989-120.226377l-4.373942-3.949714-3.328-3.03104-2.236709-2.052389c-39.12704-36.076983-53.451337-129.62816-52.926171-229.030766 29.184-25.695086 45.019429-59.147703 49.286582-94.196297 19.918263 1.496503 44.8512-2.551223 74.800275-12.141714 61.325897-19.641783 87.284297-111.826651 60.591543-178.351543-26.69568-66.524891-66.953509-77.71136-106.402378-72.636709-72.894171 9.376914-110.144366 77.472914-125.656502 118.131566-18.521234-4.442697-38.78912-5.791451-59.982995-3.763931 27.734309-60.52864 26.324114-110.71488-4.227657-150.557257z" fill="#91000A" p-id="3656"></path></svg>