<?xml version="1.0" standalone="no"?><!DOCTYPE svg PUBLIC "-//W3C//DTD SVG 1.1//EN" "http://www.w3.org/Graphics/SVG/1.1/DTD/svg11.dtd"><svg t="1580725755023" class="icon" viewBox="0 0 1024 1024" version="1.1" xmlns="http://www.w3.org/2000/svg" p-id="2843" xmlns:xlink="http://www.w3.org/1999/xlink" width="200" height="200"><defs><style type="text/css"></style></defs><path d="M512 0C229.0176 0 0 229.0176 0 512s229.0176 512 512 512 512-229.0176 512-512S794.9824 0 512 0z m210.432 641.3824c-7.4752 9.3184-27.0336-1.8432-41.984-32.5632-3.6864 13.9776-13.0048 36.3008-34.4064 64.2048 35.3792 8.3968 44.6976 42.8544 33.536 61.44-8.3968 13.056-27.0336 24.2176-59.5968 24.2176-58.624 0-83.7632-15.8208-95.8976-26.9824-1.8432-2.816-5.5808-3.7376-10.24-3.7376-4.608 0-7.424 0.9216-10.24 3.7376-11.1616 11.1616-37.2224 26.9824-95.8464 26.9824-32.6144 0-52.1728-11.1616-59.5968-24.2176-12.0832-18.5856-1.8432-53.0432 33.536-61.44-20.48-27.904-29.7984-50.2272-34.4576-64.2048-13.9776 30.72-34.4576 42.8032-41.8816 32.5632-5.632-8.3456-8.3968-26.0608-7.4752-38.144 3.7376-46.592 34.4576-85.6576 53.0944-106.1376-2.816-5.5808-8.3968-40.0384 14.848-63.2832v-1.8944c0-92.16 65.1776-158.208 148.0192-158.208 81.92 0 148.0192 66.048 148.0192 158.208v1.8944c23.296 23.2448 17.7152 57.7024 14.8992 63.2832 17.7152 20.48 49.3568 59.5968 53.0944 106.1376 0.9216 12.0832-0.9728 29.7984-7.4752 38.144z" p-id="2844"></path></svg>