<?xml version="1.0" standalone="no"?><!DOCTYPE svg PUBLIC "-//W3C//DTD SVG 1.1//EN" "http://www.w3.org/Graphics/SVG/1.1/DTD/svg11.dtd"><svg t="1580725767945" class="icon" viewBox="0 0 1024 1024" version="1.1" xmlns="http://www.w3.org/2000/svg" p-id="3604" xmlns:xlink="http://www.w3.org/1999/xlink" width="200" height="200"><defs><style type="text/css"></style></defs><path d="M576.2 511.1c-12.9 0-23.3 10.4-23.3 23.3s10.4 23.3 23.3 23.3 23.3-10.4 23.3-23.3-10.4-23.3-23.3-23.3zM352.8 351.9c-18.5 0-33.5 15-33.5 33.5s15 33.5 33.5 33.5 33.5-15 33.5-33.5-15-33.5-33.5-33.5zM485.9 413.5c10.4 6 23.1 6 33.5 0 10.4-6 16.8-17 16.8-29s-6.4-23-16.8-29-23.1-6-33.5 0c-10.4 6-16.8 17-16.8 29 0.1 11.9 6.5 23 16.8 29zM706.1 516c-7.2-4.2-16.1-4.2-23.3 0-7.2 4.2-11.6 11.8-11.6 20.2 0 8.3 4.4 16 11.6 20.2 7.2 4.2 16.1 4.2 23.3 0 7.2-4.2 11.6-11.8 11.6-20.2 0-8.3-4.4-16-11.6-20.2z" p-id="3605"></path><path d="M512 0C229 0 0 229 0 512s229 512 512 512 512-229 512-512S795 0 512 0z m-87.5 630.2c-27 0-48.4-5.6-75.4-11.2l-75.4 37.2 21.4-64.2c-54-37.2-85.6-85.6-85.6-145.2 0-102.4 96.8-182.5 215-182.5 105.2 0 198.3 64.2 216.9 150.8-6.5-0.9-14-0.9-20.5-0.9-102.4 0-182.5 76.3-182.5 170.4 0 15.8 2.8 30.7 6.5 44.7-7.4 0-13.9 0.9-20.4 0.9z m314.6 75.4l15.8 54-58.6-32.6c-21.4 5.6-42.8 11.2-64.2 11.2-102.4 0-182.5-69.8-182.5-155.5 0-85.6 80.1-155.5 182.5-155.5 96.8 0 182.5 69.8 182.5 155.5-0.1 47.5-31.7 90.3-75.5 122.9z" p-id="3606"></path></svg>